<?xml version="1.0" encoding="UTF-8" standalone="no"?>
<!-- Created with Inkscape (http://www.inkscape.org/) -->

<svg
   xmlns:dc="http://purl.org/dc/elements/1.1/"
   xmlns:cc="http://creativecommons.org/ns#"
   xmlns:rdf="http://www.w3.org/1999/02/22-rdf-syntax-ns#"
   xmlns:svg="http://www.w3.org/2000/svg"
   xmlns="http://www.w3.org/2000/svg"
   xmlns:sodipodi="http://sodipodi.sourceforge.net/DTD/sodipodi-0.dtd"
   xmlns:inkscape="http://www.inkscape.org/namespaces/inkscape"
   width="184.98399"
   height="49.992798"
   viewBox="0 0 48.943682 13.227261"
   version="1.1"
   id="svg240"
   inkscape:version="0.92.4 (5da689c313, 2019-01-14)"
   sodipodi:docname="drawing.svg">
  <defs
     id="defs234">
    <clipPath
       clipPathUnits="userSpaceOnUse"
       id="clipPath52">
      <path
         d="m 235.275,505.275 h 161.811 v 65.197 H 235.275 Z"
         id="path50"
         inkscape:connector-curvature="0" />
    </clipPath>
  </defs>
  <sodipodi:namedview
     id="base"
     pagecolor="#ffffff"
     bordercolor="#666666"
     borderopacity="1.0"
     inkscape:pageopacity="0.0"
     inkscape:pageshadow="2"
     inkscape:zoom="5.6"
     inkscape:cx="48.946106"
     inkscape:cy="-1.2627437"
     inkscape:document-units="mm"
     inkscape:current-layer="layer1"
     showgrid="false"
     units="px"
     fit-margin-top="1"
     fit-margin-bottom="1"
     fit-margin-left="1"
     fit-margin-right="1"
     inkscape:window-width="1920"
     inkscape:window-height="1001"
     inkscape:window-x="-9"
     inkscape:window-y="-9"
     inkscape:window-maximized="1" />
  <metadata
     id="metadata237">
    <rdf:RDF>
      <cc:Work
         rdf:about="">
        <dc:format>image/svg+xml</dc:format>
        <dc:type
           rdf:resource="http://purl.org/dc/dcmitype/StillImage" />
        <dc:title></dc:title>
      </cc:Work>
    </rdf:RDF>
  </metadata>
  <g
     inkscape:label="Layer 1"
     inkscape:groupmode="layer"
     id="layer1"
     transform="translate(-22.397206,-106.68994)">
    <g
       id="g46"
       transform="matrix(0.35277777,0,0,-0.35277777,-64.446909,303.26135)">
      <g
         id="g48"
         clip-path="url(#clipPath52)">
        <g
           id="g54"
           transform="translate(256.2643,542.1236)">
          <path
             d="m 0,0 c -0.529,-0.77 -1.564,-1.299 -3.512,-1.299 -0.962,0 -1.203,0.144 -1.227,0.409 -0.048,0.794 -0.072,1.708 -0.072,3.271 v 3.344 c 0.265,0.048 0.722,0.072 1.203,0.072 1.876,0 2.886,-0.409 3.464,-1.01 C 0.361,4.209 0.577,3.512 0.577,2.429 0.577,1.443 0.385,0.577 0,0 m -4.811,9.261 c 0,1.275 0.048,2.141 0.096,2.838 0,0.313 0.193,0.457 1.444,0.457 1.539,0 2.213,-0.385 2.597,-0.962 0.289,-0.433 0.457,-1.082 0.457,-1.9 0,-2.454 -1.25,-3.223 -3.391,-3.223 -0.481,0 -0.914,0 -1.203,0.024 z M 1.972,5.244 C 1.203,5.773 0.096,6.038 -1.251,6.206 v 0.096 c 0.577,0.145 1.083,0.265 1.612,0.505 0.914,0.433 1.972,1.299 1.972,3.151 0,0.938 -0.312,1.805 -0.938,2.358 -0.721,0.673 -1.684,0.962 -3.897,0.962 -1.275,0 -2.646,-0.072 -3.776,-0.072 -1.131,0 -2.165,0.072 -2.935,0.072 v -0.674 c 1.564,-0.072 1.949,-0.216 1.973,-0.553 0.072,-0.818 0.072,-1.636 0.072,-3.151 V 2.55 c 0,-1.468 -0.048,-2.574 -0.096,-3.32 -0.024,-0.433 -0.385,-0.529 -1.973,-0.601 l -0.024,-0.674 c 0.818,0.024 2.237,0.072 2.911,0.072 1.058,0 2.165,-0.048 3.223,-0.048 1.708,0 3.416,0.217 4.546,0.963 1.227,0.793 1.9,1.876 1.9,3.439 0,1.492 -0.553,2.334 -1.347,2.863"
             style="fill:#202721;fill-opacity:1;fill-rule:nonzero;stroke:none"
             id="path56"
             inkscape:connector-curvature="0" />
        </g>
        <g
           id="g58"
           transform="translate(262.1097,541.3297)">
          <path
             d="m 0,0 c -0.048,-0.409 -0.265,-0.529 -1.467,-0.577 l -0.097,-0.674 c 0.89,0 1.708,0.072 2.743,0.072 1.082,0 2.189,-0.072 3.055,-0.072 L 4.33,-0.577 C 2.502,-0.505 2.333,-0.385 2.309,0.144 2.261,0.746 2.261,1.828 2.261,4.498 c 0,0.553 0.048,0.938 0.168,1.347 0.289,1.011 0.866,1.997 1.564,1.997 0.529,0 0.698,-0.313 0.842,-0.818 0.096,-0.265 0.313,-0.385 0.698,-0.385 0.36,0 1.106,0.337 1.106,1.347 0,0.698 -0.529,1.443 -1.516,1.443 -1.491,0 -2.333,-1.178 -2.91,-2.453 H 2.141 c 0,0.505 -0.072,1.78 -0.169,2.357 L 1.9,9.405 C 0.962,9.141 -0.457,9.02 -1.467,8.996 L -1.491,8.347 -0.553,8.323 c 0.312,0 0.457,-0.12 0.505,-0.361 C 0.024,7.529 0.12,6.495 0.12,4.979 V 3.007 C 0.12,1.612 0.072,0.505 0,0"
             style="fill:#202721;fill-opacity:1;fill-rule:nonzero;stroke:none"
             id="path60"
             inkscape:connector-curvature="0" />
        </g>
        <g
           id="g62"
           transform="translate(271.6595,551.9787)">
          <path
             d="m 0,0 c 0.746,0 1.347,0.505 1.347,1.251 0,0.794 -0.433,1.323 -1.227,1.323 -0.77,0 -1.323,-0.553 -1.323,-1.347 C -1.203,0.457 -0.65,0 0,0"
             style="fill:#202721;fill-opacity:1;fill-rule:nonzero;stroke:none"
             id="path64"
             inkscape:connector-curvature="0" />
        </g>
        <g
           id="g66"
           transform="translate(274.5218,540.7524)">
          <path
             d="m 0,0 c -1.203,0.048 -1.467,0.144 -1.491,0.674 -0.024,0.505 -0.048,1.299 -0.048,2.814 v 2.79 c 0,1.804 0.048,3.151 0.072,3.729 -1.107,-0.265 -2.67,-0.361 -3.801,-0.433 l -0.024,-0.65 c 1.275,0.048 1.516,0 1.54,-0.337 0.024,-0.36 0.072,-1.154 0.072,-2.453 V 3.488 C -3.68,2.093 -3.752,1.107 -3.776,0.65 -3.8,0.216 -3.993,0.048 -5.388,0 l -0.024,-0.673 c 0.721,0 1.419,0.072 2.622,0.072 1.13,0 2.044,-0.072 2.766,-0.072 z"
             style="fill:#202721;fill-opacity:1;fill-rule:nonzero;stroke:none"
             id="path68"
             inkscape:connector-curvature="0" />
        </g>
        <g
           id="g70"
           transform="translate(281.9301,545.6356)">
          <path
             d="m 0,0 c -0.914,0.433 -2.429,0.938 -3.175,1.323 -0.553,0.265 -0.914,0.673 -0.914,1.371 0,1.034 0.697,1.708 1.78,1.708 1.515,0 2.525,-1.299 2.646,-3.103 L 0.986,1.443 C 0.938,2.453 0.938,3.873 1.13,5.123 L 0.481,5.316 0.192,4.474 c -0.36,0.337 -1.323,0.649 -2.309,0.649 -2.044,0 -3.68,-1.178 -3.68,-3.223 0,-1.323 0.722,-2.117 1.924,-2.622 0.842,-0.361 2.069,-0.866 2.863,-1.251 0.625,-0.312 0.866,-0.769 0.866,-1.322 0,-1.083 -0.77,-1.781 -2.117,-1.781 -1.203,0 -2.165,0.554 -2.598,1.66 -0.265,0.626 -0.385,1.395 -0.433,1.9 l -0.625,-0.096 c 0.048,-1.347 0,-2.934 -0.024,-3.512 0.697,-0.312 2.068,-0.697 3.367,-0.697 2.069,0 4.306,0.986 4.306,3.367 C 1.732,-1.371 1.227,-0.529 0,0"
             style="fill:#202721;fill-opacity:1;fill-rule:nonzero;stroke:none"
             id="path72"
             inkscape:connector-curvature="0" />
        </g>
        <g
           id="g74"
           transform="translate(285.8751,542.1956)">
          <path
             d="m 0,0 c 0.024,-0.722 0.144,-1.154 0.409,-1.539 0.361,-0.506 1.082,-0.842 2.165,-0.842 1.563,0 2.766,0.745 3.367,2.141 L 5.701,0.625 H 5.388 c -0.289,-1.202 -0.89,-2.044 -1.972,-2.044 -0.602,0 -0.986,0.361 -1.083,0.962 -0.12,0.674 -0.144,1.9 -0.144,4.065 0,1.852 0.048,2.887 0.072,3.704 l 3.247,0.169 0.097,0.722 h -3.32 c 0,1.323 0.072,3.103 0.12,3.728 L 2.189,12.003 C 1.828,11.691 1.01,11.233 0.12,10.897 V 8.203 H -1.443 L -1.564,7.481 0.096,7.312 C 0.072,5.46 0,1.9 0,0"
             style="fill:#202721;fill-opacity:1;fill-rule:nonzero;stroke:none"
             id="path76"
             inkscape:connector-curvature="0" />
        </g>
        <g
           id="g78"
           transform="translate(295.6893,548.8586)">
          <path
             d="m 0,0 c 0.481,0.722 1.106,1.179 2.093,1.179 1.034,0 1.732,-0.554 2.165,-1.371 0.409,-0.746 0.673,-2.021 0.673,-3.512 0,-1.468 -0.24,-2.622 -0.601,-3.344 -0.457,-0.866 -1.131,-1.275 -2.069,-1.275 -0.962,0 -1.756,0.505 -2.261,1.468 -0.433,0.817 -0.698,2.116 -0.698,3.56 0,1.395 0.265,2.573 0.698,3.295 m 2.069,-9.044 c 3.319,0 5.292,2.213 5.292,5.58 0,3.127 -1.925,5.364 -5.148,5.364 -3.44,0 -5.364,-2.501 -5.364,-5.556 0,-3.079 1.708,-5.388 5.22,-5.388"
             style="fill:#202721;fill-opacity:1;fill-rule:nonzero;stroke:none"
             id="path80"
             inkscape:connector-curvature="0" />
        </g>
        <g
           id="g82"
           transform="translate(309.4481,540.079)">
          <path
             d="m 0,0 0.048,0.673 c -1.275,0.049 -1.563,0.145 -1.612,0.674 -0.024,0.577 -0.048,1.636 -0.048,4.137 v 6.038 c 0,2.333 0.072,3.945 0.097,4.859 -0.939,-0.144 -2.286,-0.289 -3.849,-0.313 l -0.024,-0.649 c 1.395,0 1.563,-0.072 1.587,-0.433 0.049,-0.65 0.049,-1.347 0.049,-3.368 V 5.581 C -3.752,3.512 -3.825,1.852 -3.873,1.395 -3.897,0.866 -4.089,0.697 -5.436,0.673 V 0 c 0.601,0 1.419,0.072 2.525,0.072 C -1.948,0.072 -0.866,0 0,0"
             style="fill:#202721;fill-opacity:1;fill-rule:nonzero;stroke:none"
             id="path84"
             inkscape:connector-curvature="0" />
        </g>
        <g
           id="g86"
           transform="translate(325.5401,542.3159)">
          <path
             d="m 0,0 c -0.794,-1.323 -1.876,-1.804 -3.103,-1.804 -1.323,0 -2.454,0.553 -3.271,1.852 -0.698,1.131 -1.251,3.175 -1.251,5.533 0,2.357 0.481,4.209 1.106,5.268 0.77,1.226 1.877,1.852 3.224,1.852 1.443,0 2.501,-0.674 3.223,-1.901 C 0.625,9.55 1.034,7.601 1.034,5.364 1.034,3.055 0.625,1.082 0,0 m 3.776,5.677 c 0,4.233 -2.429,7.721 -6.903,7.721 -4.739,0 -7.24,-3.68 -7.24,-8.106 0,-5.076 2.862,-7.842 7.072,-7.842 4.185,0 7.071,2.718 7.071,8.227"
             style="fill:#202721;fill-opacity:1;fill-rule:nonzero;stroke:none"
             id="path88"
             inkscape:connector-curvature="0" />
        </g>
        <g
           id="g90"
           transform="translate(336.1722,540.7524)">
          <path
             d="M 0,0 C -1.275,0.048 -1.564,0.144 -1.612,0.674 -1.636,1.251 -1.66,2.309 -1.66,4.811 v 6.038 c 0,2.333 0.072,3.944 0.096,4.858 -0.938,-0.144 -2.285,-0.288 -3.848,-0.312 l -0.024,-0.65 c 1.395,0 1.563,-0.072 1.587,-0.433 0.048,-0.649 0.048,-1.347 0.048,-3.367 V 4.907 c 0,-2.068 -0.072,-3.728 -0.12,-4.185 C -3.945,0.192 -4.137,0.024 -5.484,0 v -0.673 c 0.601,0 1.419,0.072 2.525,0.072 0.963,0 2.045,-0.072 2.911,-0.072 z"
             style="fill:#202721;fill-opacity:1;fill-rule:nonzero;stroke:none"
             id="path92"
             inkscape:connector-curvature="0" />
        </g>
        <g
           id="g94"
           transform="translate(342.7386,550.0133)">
          <path
             d="m 0,0 c 1.299,0 1.876,-0.698 2.165,-1.275 0.144,-0.264 0.168,-0.577 0.168,-2.526 0,-3.103 -0.072,-3.487 -0.24,-3.8 -0.602,-1.034 -1.419,-1.395 -2.357,-1.395 -0.818,0 -1.564,0.361 -2.069,1.082 -0.529,0.77 -0.794,1.997 -0.794,3.271 C -3.127,-2.093 -2.117,0 0,0 m -1.227,-10.199 c 1.371,0 2.454,0.65 3.488,1.684 l 0.048,-0.024 c 0.024,-0.481 0,-1.227 0,-1.708 0.866,0.216 2.887,0.361 3.849,0.361 l 0.12,0.697 h -1.13 c -0.361,0 -0.505,0.097 -0.553,0.505 -0.097,0.722 -0.121,1.732 -0.121,4.138 l 0.024,5.58 c 0,2.502 0.072,4.426 0.12,5.413 C 3.656,6.302 1.54,6.158 0.577,6.134 L 0.505,5.484 c 1.588,0.048 1.756,0 1.78,-0.529 C 2.333,4.113 2.357,2.766 2.333,0.12 1.924,0.433 1.034,0.746 -0.048,0.746 c -3.656,0 -5.436,-2.694 -5.436,-5.821 0,-1.42 0.337,-2.695 1.01,-3.585 0.673,-0.938 1.78,-1.539 3.247,-1.539"
             style="fill:#202721;fill-opacity:1;fill-rule:nonzero;stroke:none"
             id="path96"
             inkscape:connector-curvature="0" />
        </g>
        <g
           id="g98"
           transform="translate(369.1022,555.4014)">
          <path
             d="M 0,0 C -0.963,0 -1.829,-0.072 -2.646,-0.072 -3.681,-0.072 -4.715,0 -5.196,0 l 0.12,-0.674 c 0.505,-0.048 0.987,-0.12 1.42,-0.192 0.361,-0.024 0.456,-0.192 0.384,-0.625 -0.456,-1.828 -2.309,-6.904 -4.017,-11.378 -1.539,4.21 -3.728,10.488 -4.017,11.498 -0.072,0.361 -0.024,0.505 0.385,0.553 l 1.3,0.144 L -9.719,0 c -1.082,0 -2.188,-0.072 -3.175,-0.072 -1.13,0 -2.477,0.072 -3.03,0.072 l 0.024,-0.674 c 1.323,-0.048 1.636,-0.192 2.044,-1.034 0.77,-1.804 3.368,-8.876 5.003,-13.855 0.314,0.072 1.155,0.096 1.541,0.024 1.755,4.979 4.017,11.017 5.075,13.398 0.529,1.203 0.89,1.419 2.381,1.467 z"
             style="fill:#202721;fill-opacity:1;fill-rule:nonzero;stroke:none"
             id="path100"
             inkscape:connector-curvature="0" />
        </g>
        <g
           id="g102"
           transform="translate(370.8576,551.9787)">
          <path
             d="m 0,0 c 0.746,0 1.347,0.505 1.347,1.251 0,0.794 -0.433,1.323 -1.226,1.323 -0.77,0 -1.324,-0.553 -1.324,-1.347 C -1.203,0.457 -0.649,0 0,0"
             style="fill:#202721;fill-opacity:1;fill-rule:nonzero;stroke:none"
             id="path104"
             inkscape:connector-curvature="0" />
        </g>
        <g
           id="g106"
           transform="translate(372.2534,550.759)">
          <path
             d="m 0,0 c -1.107,-0.265 -2.67,-0.361 -3.801,-0.433 l -0.024,-0.649 c 1.275,0.048 1.515,0 1.54,-0.337 0.023,-0.361 0.072,-1.155 0.072,-2.454 v -2.646 c 0,-1.395 -0.072,-2.381 -0.097,-2.838 -0.024,-0.433 -0.217,-0.601 -1.611,-0.65 l -0.024,-0.673 c 0.722,0 1.418,0.072 2.621,0.072 1.131,0 2.046,-0.072 2.767,-0.072 l 0.024,0.673 C 0.264,-9.958 0,-9.862 -0.025,-9.333 c -0.024,0.505 -0.047,1.299 -0.047,2.814 v 2.791 c 0,1.804 0.047,3.151 0.072,3.728"
             style="fill:#202721;fill-opacity:1;fill-rule:nonzero;stroke:none"
             id="path108"
             inkscape:connector-curvature="0" />
        </g>
        <g
           id="g110"
           transform="translate(379.7339,539.8144)">
          <path
             d="M 0,0 C 2.381,0 3.801,1.275 4.426,3.247 L 3.801,3.584 C 3.151,1.9 2.309,1.106 0.697,1.106 c -1.106,0 -1.972,0.482 -2.526,1.42 -0.481,0.769 -0.698,1.852 -0.698,3.079 0,2.549 0.987,4.642 2.96,4.642 1.347,0 1.876,-0.673 1.876,-1.756 C 2.309,8.25 2.237,7.986 2.213,7.745 2.165,7.529 2.26,7.361 2.405,7.24 2.525,7.12 2.79,7.072 3.007,7.072 c 0.649,0 1.25,0.409 1.25,1.275 0,1.563 -1.564,2.598 -3.752,2.598 -3.465,0 -5.436,-2.55 -5.436,-5.629 0,-1.636 0.409,-2.911 1.13,-3.777 C -2.911,0.505 -1.732,0 0,0"
             style="fill:#202721;fill-opacity:1;fill-rule:nonzero;stroke:none"
             id="path112"
             inkscape:connector-curvature="0" />
        </g>
        <g
           id="g114"
           transform="translate(254.1323,535.321)">
          <path
             d="M 0,0 H -1.814 C -4.615,0 -6.062,0.046 -6.728,0.207 -6.796,-0.804 -7.003,-2.962 -7.21,-4.11 l 0.574,-0.161 c 0.253,0.919 0.483,1.722 0.804,2.48 0.39,0.895 0.643,1.102 3.766,1.102 0.045,-0.62 0.023,-1.791 0.023,-3.329 V -8.84 c 0,-2.457 -0.023,-3.513 -0.069,-4.294 -0.046,-0.436 -0.276,-0.574 -0.758,-0.642 -0.735,-0.069 -1.194,-0.115 -1.699,-0.138 l 0.092,-0.643 c 1.056,0 2.296,0.069 3.352,0.069 1.515,0 3.031,-0.069 3.765,-0.069 l 0.046,0.643 c -0.665,0.023 -1.033,0.069 -1.768,0.16 -0.459,0.046 -0.551,0.23 -0.597,0.666 -0.045,0.551 -0.091,1.86 -0.091,4.225 v 5.097 c 0,1.217 0,2.457 0.023,3.077 3.122,0.046 3.49,-0.184 3.696,-0.803 0.161,-0.437 0.368,-1.332 0.505,-2.641 l 0.643,0.207 C 5.028,-2.273 5.258,-0.161 5.304,0.207 4.454,0.023 3.444,0 0,0"
             style="fill:#202721;fill-opacity:1;fill-rule:nonzero;stroke:none"
             id="path116"
             inkscape:connector-curvature="0" />
        </g>
        <g
           id="g118"
           transform="translate(270.248,522.0266)">
          <path
             d="m 0,0 v 5.924 c 0,0.712 -0.092,1.286 -0.321,1.722 -0.23,0.436 -0.896,1.286 -2.503,1.286 -1.584,0 -2.87,-0.919 -3.697,-1.791 v 2.916 c 0,1.906 0.046,3.398 0.069,4.317 -0.528,-0.092 -2.388,-0.23 -3.582,-0.253 v -0.597 c 1.148,-0.023 1.355,-0.092 1.401,-0.39 0.046,-0.528 0.046,-1.24 0.046,-3.031 V 3.559 C -8.587,1.469 -8.61,0.735 -8.656,0 -8.679,-0.482 -8.932,-0.597 -10.057,-0.62 v -0.643 c 0.62,0 1.378,0.069 2.388,0.069 0.827,0 1.906,-0.069 2.503,-0.069 v 0.643 c -1.125,0.023 -1.309,0.138 -1.309,0.666 -0.046,0.505 -0.046,1.447 -0.046,2.618 v 2.571 c 0,0.459 0.023,0.781 0.253,1.148 0.597,0.988 1.446,1.424 2.479,1.424 0.85,0 1.309,-0.414 1.539,-0.942 0.138,-0.344 0.207,-0.665 0.207,-3.559 0,-1.745 -0.046,-2.893 -0.092,-3.329 -0.046,-0.436 -0.207,-0.551 -1.309,-0.597 l -0.023,-0.643 c 0.62,0 1.378,0.069 2.388,0.069 0.941,0 1.837,-0.069 2.503,-0.069 L 1.47,-0.62 C 0.092,-0.574 0,-0.505 0,0"
             style="fill:#202721;fill-opacity:1;fill-rule:nonzero;stroke:none"
             id="path120"
             inkscape:connector-curvature="0" />
        </g>
        <g
           id="g122"
           transform="translate(279.1799,526.6189)">
          <path
             d="m 0,0 c -0.367,-0.069 -0.964,-0.138 -2.044,-0.138 h -1.905 c 0.069,1.86 0.78,3.812 2.388,3.812 1.515,0 2.02,-1.63 2.02,-2.87 C 0.459,0.321 0.298,0.069 0,0 m -1.424,4.34 c -3.191,0 -4.821,-2.572 -4.821,-5.442 0,-1.332 0.344,-2.641 0.964,-3.444 0.758,-1.011 1.883,-1.562 3.651,-1.562 1.951,0 3.421,0.896 4.11,2.962 l -0.597,0.322 c -0.62,-1.562 -1.47,-2.228 -2.893,-2.228 -1.034,0 -1.791,0.414 -2.296,1.194 -0.414,0.666 -0.735,1.769 -0.689,3.008 0.987,-0.023 2.204,-0.023 3.008,0 1.492,0.023 2.617,0.138 3.008,0.299 0.344,0.138 0.482,0.459 0.482,0.918 C 2.526,1.722 1.906,4.34 -1.424,4.34"
             style="fill:#202721;fill-opacity:1;fill-rule:nonzero;stroke:none"
             id="path124"
             inkscape:connector-curvature="0" />
        </g>
        <g
           id="g126"
           transform="translate(289.0766,524.1849)">
          <path
             d="m 0,0 c 0,-0.321 -0.046,-0.689 -0.138,-0.964 -0.39,-0.85 -1.056,-1.493 -2.135,-1.493 -1.033,0 -1.607,0.873 -1.607,1.952 0,1.033 0.505,1.377 1.194,1.745 C -1.86,1.676 -0.62,2.204 0,2.549 Z m 2.549,-2.571 c -0.299,0 -0.551,0.16 -0.551,1.01 v 5.832 c 0,0.413 -0.138,0.895 -0.322,1.194 -0.321,0.482 -1.171,1.309 -3.1,1.309 -2.525,0 -4.201,-1.493 -4.201,-2.687 0,-0.758 0.482,-1.033 0.987,-1.033 0.321,0 0.574,0.092 0.781,0.229 0.137,0.092 0.252,0.276 0.206,0.483 -0.046,0.183 -0.092,0.436 -0.092,0.688 0,0.942 0.597,1.654 1.952,1.654 C -0.482,6.108 0,5.166 0,4.179 V 3.283 C -0.918,2.641 -3.237,1.906 -4.822,1.24 -5.74,0.85 -6.108,0.092 -6.108,-0.85 c 0,-1.607 1.011,-2.824 2.802,-2.824 1.079,0 2.273,0.597 3.283,1.699 0.138,-0.987 0.597,-1.699 1.791,-1.699 1.079,0 1.998,0.597 2.319,2.25 L 3.49,-1.171 c -0.23,-0.941 -0.574,-1.4 -0.941,-1.4"
             style="fill:#202721;fill-opacity:1;fill-rule:nonzero;stroke:none"
             id="path128"
             inkscape:connector-curvature="0" />
        </g>
        <g
           id="g130"
           transform="translate(299.7077,523.3813)">
          <path
             d="m 0,0 c -0.276,-1.148 -0.85,-1.952 -1.883,-1.952 -0.574,0 -0.941,0.345 -1.033,0.919 -0.115,0.643 -0.138,1.814 -0.138,3.88 0,1.768 0.046,2.756 0.069,3.536 l 3.1,0.161 0.092,0.689 h -3.169 c 0,1.263 0.069,2.962 0.115,3.559 l -0.207,0.069 C -3.398,10.562 -4.179,10.126 -5.028,9.804 V 7.233 H -6.521 L -6.636,6.544 -5.051,6.383 c -0.023,-1.768 -0.092,-5.166 -0.092,-6.98 0.023,-0.689 0.137,-1.102 0.39,-1.469 0.344,-0.483 1.033,-0.804 2.066,-0.804 1.493,0 2.641,0.712 3.215,2.043 L 0.298,0 Z"
             style="fill:#202721;fill-opacity:1;fill-rule:nonzero;stroke:none"
             id="path132"
             inkscape:connector-curvature="0" />
        </g>
        <g
           id="g134"
           transform="translate(306.9179,530.9585)">
          <path
             d="m 0,0 c -1.424,0 -2.227,-1.125 -2.778,-2.342 h -0.069 c 0,0.482 -0.069,1.699 -0.161,2.25 l -0.069,0.069 c -0.895,-0.253 -2.25,-0.367 -3.214,-0.39 l -0.023,-0.62 0.895,-0.023 c 0.299,0 0.436,-0.115 0.482,-0.345 0.069,-0.413 0.161,-1.4 0.161,-2.847 v -1.883 c 0,-1.331 -0.046,-2.388 -0.115,-2.87 -0.046,-0.39 -0.252,-0.505 -1.4,-0.551 l -0.092,-0.643 c 0.849,0 1.63,0.069 2.617,0.069 1.034,0 2.09,-0.069 2.916,-0.069 l 0.092,0.643 c -1.745,0.069 -1.906,0.184 -1.929,0.689 -0.045,0.574 -0.045,1.607 -0.045,4.156 0,0.528 0.045,0.896 0.16,1.286 0.276,0.964 0.827,1.905 1.493,1.905 0.505,0 0.666,-0.298 0.803,-0.78 0.092,-0.253 0.299,-0.367 0.666,-0.367 0.345,0 1.056,0.321 1.056,1.285 C 1.446,-0.712 0.941,0 0,0"
             style="fill:#202721;fill-opacity:1;fill-rule:nonzero;stroke:none"
             id="path136"
             inkscape:connector-curvature="0" />
        </g>
        <g
           id="g138"
           transform="translate(314.9775,526.6189)">
          <path
             d="m 0,0 c -0.367,-0.069 -0.964,-0.138 -2.043,-0.138 h -1.906 c 0.069,1.86 0.78,3.812 2.388,3.812 1.515,0 2.02,-1.63 2.02,-2.87 C 0.459,0.321 0.298,0.069 0,0 m -1.424,4.34 c -3.191,0 -4.821,-2.572 -4.821,-5.442 0,-1.332 0.344,-2.641 0.964,-3.444 0.758,-1.011 1.883,-1.562 3.651,-1.562 1.952,0 3.421,0.896 4.11,2.962 l -0.597,0.322 c -0.62,-1.562 -1.47,-2.228 -2.893,-2.228 -1.033,0 -1.791,0.414 -2.296,1.194 -0.414,0.666 -0.735,1.769 -0.689,3.008 0.987,-0.023 2.204,-0.023 3.008,0 1.492,0.023 2.617,0.138 3.008,0.299 0.344,0.138 0.482,0.459 0.482,0.918 C 2.526,1.722 1.906,4.34 -1.424,4.34"
             style="fill:#202721;fill-opacity:1;fill-rule:nonzero;stroke:none"
             id="path140"
             inkscape:connector-curvature="0" />
        </g>
        <g
           id="g142"
           transform="translate(330.7749,527.9277)">
          <path
             d="m 0,0 c -0.827,0.551 -2.02,1.102 -3.697,1.998 -1.148,0.619 -1.584,1.423 -1.584,2.456 0,1.585 0.941,2.595 2.457,2.595 1.676,0 3.031,-1.194 3.008,-3.835 l 0.643,0.069 c 0,0.827 0.046,2.641 0.367,4.432 L 0.62,7.853 0.23,6.842 c -0.528,0.506 -1.676,0.919 -2.985,0.919 -2.641,0 -4.478,-1.584 -4.478,-4.11 0,-1.447 0.597,-2.687 2.159,-3.559 1.056,-0.597 2.847,-1.47 3.536,-1.883 0.872,-0.505 1.263,-1.217 1.263,-2.181 0,-1.906 -1.332,-2.756 -2.871,-2.756 -2.365,0 -3.627,1.562 -3.536,4.432 l -0.62,-0.138 c -0.022,-1.171 -0.045,-2.847 -0.183,-4.133 0.941,-0.436 2.571,-0.895 3.972,-0.895 2.939,0 5.327,1.423 5.327,4.362 0,1.516 -0.62,2.457 -1.814,3.1"
             style="fill:#202721;fill-opacity:1;fill-rule:nonzero;stroke:none"
             id="path144"
             inkscape:connector-curvature="0" />
        </g>
        <g
           id="g146"
           transform="translate(339.638,521.5673)">
          <path
             d="m 0,0 c -1.056,0 -1.883,0.459 -2.411,1.355 -0.459,0.735 -0.666,1.768 -0.666,2.939 0,2.434 0.942,4.431 2.824,4.431 1.286,0 1.791,-0.643 1.791,-1.676 C 1.538,6.82 1.47,6.567 1.447,6.337 1.401,6.131 1.492,5.97 1.63,5.855 1.745,5.74 1.998,5.694 2.204,5.694 c 0.62,0 1.194,0.391 1.194,1.217 0,1.493 -1.492,2.48 -3.582,2.48 -3.306,0 -5.189,-2.434 -5.189,-5.373 0,-1.561 0.39,-2.778 1.079,-3.604 0.85,-0.988 1.975,-1.47 3.628,-1.47 2.273,0 3.628,1.217 4.225,3.1 L 2.962,2.365 C 2.342,0.758 1.538,0 0,0"
             style="fill:#202721;fill-opacity:1;fill-rule:nonzero;stroke:none"
             id="path148"
             inkscape:connector-curvature="0" />
        </g>
        <g
           id="g150"
           transform="translate(353.8741,522.0266)">
          <path
             d="m 0,0 v 5.924 c 0,0.712 -0.092,1.286 -0.322,1.722 -0.229,0.436 -0.895,1.286 -2.502,1.286 -1.585,0 -2.87,-0.919 -3.697,-1.791 v 2.916 c 0,1.906 0.046,3.398 0.069,4.317 -0.528,-0.092 -2.388,-0.23 -3.582,-0.253 v -0.597 c 1.148,-0.023 1.355,-0.092 1.401,-0.39 0.046,-0.528 0.046,-1.24 0.046,-3.031 V 3.559 C -8.587,1.469 -8.61,0.735 -8.656,0 -8.679,-0.482 -8.932,-0.597 -10.057,-0.62 v -0.643 c 0.62,0 1.378,0.069 2.388,0.069 0.827,0 1.906,-0.069 2.503,-0.069 v 0.643 c -1.125,0.023 -1.309,0.138 -1.309,0.666 -0.046,0.505 -0.046,1.447 -0.046,2.618 v 2.571 c 0,0.459 0.023,0.781 0.253,1.148 0.597,0.988 1.446,1.424 2.479,1.424 0.85,0 1.309,-0.414 1.539,-0.942 0.137,-0.344 0.206,-0.665 0.206,-3.559 0,-1.745 -0.046,-2.893 -0.091,-3.329 -0.046,-0.436 -0.207,-0.551 -1.309,-0.597 l -0.023,-0.643 c 0.62,0 1.377,0.069 2.388,0.069 0.941,0 1.837,-0.069 2.502,-0.069 L 1.469,-0.62 C 0.092,-0.574 0,-0.505 0,0"
             style="fill:#202721;fill-opacity:1;fill-rule:nonzero;stroke:none"
             id="path152"
             inkscape:connector-curvature="0" />
        </g>
        <g
           id="g154"
           transform="translate(363.5177,522.417)">
          <path
             d="m 0,0 c -0.437,-0.827 -1.079,-1.217 -1.974,-1.217 -0.918,0 -1.677,0.482 -2.159,1.401 -0.413,0.78 -0.666,2.02 -0.666,3.398 0,1.332 0.253,2.457 0.666,3.146 0.459,0.689 1.056,1.125 1.998,1.125 0.987,0 1.654,-0.529 2.067,-1.309 C 0.321,5.832 0.574,4.615 0.574,3.192 0.574,1.791 0.345,0.689 0,0 m -2.02,8.542 c -3.284,0 -5.121,-2.389 -5.121,-5.304 0,-2.939 1.63,-5.144 4.983,-5.144 3.168,0 5.052,2.113 5.052,5.327 0,2.985 -1.838,5.121 -4.914,5.121"
             style="fill:#202721;fill-opacity:1;fill-rule:nonzero;stroke:none"
             id="path156"
             inkscape:connector-curvature="0" />
        </g>
        <g
           id="g158"
           transform="translate(375.1135,522.417)">
          <path
             d="m 0,0 c -0.437,-0.827 -1.08,-1.217 -1.976,-1.217 -0.918,0 -1.675,0.482 -2.158,1.401 -0.413,0.78 -0.665,2.02 -0.665,3.398 0,1.332 0.252,2.457 0.665,3.146 0.46,0.689 1.056,1.125 1.998,1.125 0.988,0 1.653,-0.529 2.066,-1.309 C 0.321,5.832 0.574,4.615 0.574,3.192 0.574,1.791 0.345,0.689 0,0 m -2.022,8.542 c -3.283,0 -5.119,-2.389 -5.119,-5.304 0,-2.939 1.63,-5.144 4.983,-5.144 3.168,0 5.05,2.113 5.05,5.327 0,2.985 -1.836,5.121 -4.914,5.121"
             style="fill:#202721;fill-opacity:1;fill-rule:nonzero;stroke:none"
             id="path160"
             inkscape:connector-curvature="0" />
        </g>
        <g
           id="g162"
           transform="translate(382.6213,522.0496)">
          <path
             d="m 0,0 c -0.024,0.551 -0.046,1.561 -0.046,3.949 v 5.764 c 0,2.227 0.068,3.765 0.092,4.638 -0.896,-0.138 -2.182,-0.276 -3.674,-0.299 l -0.023,-0.62 c 1.332,0 1.493,-0.069 1.515,-0.413 0.046,-0.62 0.046,-1.286 0.046,-3.215 V 4.041 c 0,-1.974 -0.068,-3.559 -0.114,-3.995 -0.023,-0.505 -0.207,-0.666 -1.493,-0.689 v -0.643 c 0.574,0 1.354,0.069 2.411,0.069 0.919,0 1.952,-0.069 2.779,-0.069 l 0.046,0.643 C 0.321,-0.597 0.046,-0.505 0,0"
             style="fill:#202721;fill-opacity:1;fill-rule:nonzero;stroke:none"
             id="path164"
             inkscape:connector-curvature="0" />
        </g>
      </g>
    </g>
  </g>
</svg>
